<svg xmlns="http://www.w3.org/2000/svg" viewBox="0 0 651.18 233.53"><defs><style>.cls-1{fill:#bcbec0;}.cls-2{fill:#ed1c24;}.cls-3{fill:#fff;}</style></defs><title>MobileBanner19Number</title><g id="Layer_4" data-name="Layer 4"><path class="cls-1" d="M716.13,217.95v-2.12l-18.26,2.12v1.52l-5.28.61V219l-3.74,1.06v23.74H672.29v12.82h-13.2V228.31h-3v-6.59h-3.72v-3.78h-1.49V207.09h-1v10.86h-8.41V207.09h-1v10.86h-1.16v3.78h-3v6.59h-2.68v37.78H623.07V238.71h-7v-2.12H602.6v2.12h-6.74v17.92h-34V241.54h-6.71v-22.8h-6.3V187.17h-5.25V161.34h-5.78V141.73h-2.1v19.61h-2.1V141.73h-2.1v19.61h-7.88v25.83h-5.25v74.19h-18v-6.14h-1v-2.12h-.58V251.4h1.1a.3.3,0,0,0,0-.59H499L496.85,247l-1.12-2-.23,0v-2.53c0-.93-.56-1.68-1.26-1.68s-1.26.75-1.26,1.68v3.15L492.2,247,490,250.81H489a.3.3,0,0,0,0,.59h1.33v1.71h-.81v2.12h-1.39v6.9h-3.6l-.34-27.26H471.81v-1.77l-12.17,1.77V237l-9.21,1.71v29.67h-.7v-2.29h-8.52v2.29h-3.67l.19-19.52h-5.21v-1.75h-7.47v1.75h-1.57l.53-55.93h-5.44l-1.05-1.18-7-1.18-8.11,4.48v62.42h-3.71V245h-3.13V242l-2.2,1.18L386.36,242V245h-1.62V263h-9.47l.08-4.32s-2.27-10.13-5.1-10.72c-3.47-.72-10.66,9.64-10.66,9.64a4.67,4.67,0,0,0-.58,1.32v3h-1V224.67h-.33a1.49,1.49,0,0,0,.8-1.36,1.4,1.4,0,0,0-1.31-1.47h-8.5a1.4,1.4,0,0,0-1.31,1.47,1.49,1.49,0,0,0,.8,1.36h-.22v24.19h-9.5V245H322.64v3.89h-5.53l.31-17.7-.31-.82L315.45,226s-3.94-9.44-5.56-9.2-6.72,7.2-6.72,7.2l-.93,7.2V262h-7.49v-8H271.89v-3.66h-7.18V259h-4.63V245.85H255.2v-2H240.84v2h-4.4v-9.5H225.54v-7.08H204v36.11h-5.56v-7.91H194v-3.07h-8.34v3.07h-5.56v9.32h-2.55V250.64H166V262h-9.27v-5.55h-10V262h-.21l-1.5-52.8h-2.53v-2.66h-1.83V193.92h-1.19v12.58h-8.31V193.92H130v12.58h-1.83v2.66h-2.53l-1,35v-1.93h-8.69v14.16h-5.1v-12.6H106v-3.92h-12v3.92H87.43v10.77H72.21v43H87.43v23.93h23.4v-1.18h13.79v-.94h53v-1.36h28v-2.18H232v.94h33.83v-.94h6V290h20.39v25.87h10v.94h8.92v1.24H359v1.1l15.18-.66v-.44H419.5l17,.73v0h82.61v-5.36h35.78v5.36H672.29v-5.36h16.56v5.36h34.54V217.95Z" transform="translate(-72.21 -141.73)"/><polygon class="cls-2" points="223.87 115.75 220.09 115.72 218.06 127.78 221.67 128.99 223.87 115.75"/><polygon class="cls-2" points="224.56 115.96 222.35 129.19 233.17 132.9 233.17 126.31 243.99 126.31 243.99 134.79 250.75 134.39 253.12 120.35 242.96 116.14 224.56 115.96"/><path class="cls-2" d="M315.11,276.59v-7.45h-8.63v9.49h-13v-1.27l-3.06-1.24v7.41h3.19a4.6,4.6,0,0,1,8.31-1.61,4.6,4.6,0,0,1,8.31,1.61h18.19a4.6,4.6,0,0,1,9,0h.76V273.37l-3.34-6.69H326.2v11.94H315.11Z" transform="translate(-72.21 -141.73)"/><polygon class="cls-2" points="202.1 126.66 193.6 126.66 192.06 130.24 203.65 130.24 202.1 126.66"/><path class="cls-2" d="M279.27,276.39a.33.33,0,0,0,.33-.33v-3.22a.33.33,0,1,0-.67,0V274h-.51v-2.85h-1.71V274H275.6l.26-1.5h-11.6l.26,1.5h-.92v-2.85h-1.71l-2.54,7.11,2.54,5h16.53v-8.41h.51v1.16A.33.33,0,0,0,279.27,276.39Zm-2.56,5.2h-13.1v-6.7h1.08l1.13,6.39h8.5l1.13-6.39h1.27Z" transform="translate(-72.21 -141.73)"/><path class="cls-2" d="M722.44,228.05v-5.88h-.69v5.88h-1v-5.88h-.69v5.88h-1v-5.88h-.69v5.88h-1v-5.88h-.69v5.88h-.86v58.6h-4.72V227.5h-1.42v59.16h-7.74V226.74h-3.1v59.91h-5.44v-58.6h-1v-5.88h-.69v5.88h-1v-5.88H690v5.88h-1v-5.88h-.69v5.88h-1v-5.88h-.69v5.88h-.86v58.6h-3.26V226.88h-1.42v59.78h-4V226.88h-1.93v59.78H670V226.74h-3.1v59.91H655.8v-2.92H615.37v2.92H598a5.66,5.66,0,0,0-4.09-9.58h-10.3v-2.75h.5a5.58,5.58,0,0,0,5.19-3.52l32.84-15.15.16,0a.56.56,0,0,0,.16-.11l14.47-6.68v16.33h-.36v.56h-1.2v5.52h1.56v2l-6.41,6.06h-5.86v3.42H650v-3.42h-5.64l-6.48-6.12v-2h1.57v-5.52h-1.17v-.56h-.4V248h0a.56.56,0,0,0,0-.21l-2-4.73a.57.57,0,0,0-.73-.3l-1.29.51-70.13-.92v-2.08H562.3v3.2c-1.35,3.64-5.57,15-6.87,18.87a5.58,5.58,0,0,0-3.55,5.2v1.18a5.58,5.58,0,0,0,5.58,5.58h8.71v2.75h-9.45a5.66,5.66,0,0,0-4.09,9.58h-7.37l-2-1.78-5.19-4.72-4.7,4.28-1.84-1.67L526.36,278l-5.19,4.72-4.29,3.9h-4.42v-5.38h-4.35v-1.6h2.19v-1.33h-2.19V274h2.19v-1.33h-2.19v-4.3h2.19v-1.33h-2.19v-4.3h2.19v-1.33h-2.19v-4.3h2.19V255.8h-2.19v-4.3h2.19v-1.33h-2.19v-4.3h2.19v-1.33h-2.19v-4.3h2.19v-1.33h-2.19v-4.3h2.19v-1.33h-2.19v-4.3h2.19v-1.33h-2.19v-4.3h2.19V222h-2.19v-4.3h2.19v-1.33h-2.19v-2.21h.09v-3.85h-18V198.88h1.37v4.95h5.24v-4.95h0v-2.42h-2c-1.37-.73-3.83-2-6.28-3.16v-.89h-4v1l-18.53,3h-2.53l-1.25.85H406.79l-2.59,1.57h10.45v34l-4.82,4.4h-2.61V248h16.25V237.23h-2.61l-5.17-4.71V198.88h67.13v11.39H470.55v1.9h0v4.17h-2.19v1.33h2.19V222h-2.19v1.33h2.19v4.3h-2.19v1.33h2.19v4.3h-2.19v1.33h2.19v4.3h-2.19v1.33h2.19v4.3h-2.19v1.33h2.19v4.3h-2.19v1.33h2.19v4.3h-2.19v1.33h2.19v4.3h-2.19v1.33h2.19v4.3h-2.19v1.33h2.19v4.3h-2.19V274h2.19v4.3h-2.19v1.33h2.19v1.6h-2.83v5.38h-7.93l.13-.25.2,0a.28.28,0,0,0,.29-.2l.29-1.08a.28.28,0,0,0-.15-.32l-.18-.09c0-.15,0-.31,0-.47s0-.29,0-.44l.18-.09a.28.28,0,0,0,.15-.32l-.29-1.08a.28.28,0,0,0-.29-.21h-.2a5.07,5.07,0,0,0-.45-.79l.11-.16a.28.28,0,0,0,0-.35l-.79-.8a.28.28,0,0,0-.35,0l-.16.11a5.08,5.08,0,0,0-.78-.46v-.2a.28.28,0,0,0-.2-.29l-1.08-.29a.28.28,0,0,0-.32.15l-.09.18-.47,0-.44,0-.09-.18a.28.28,0,0,0-.32-.15l-1.08.29a.28.28,0,0,0-.21.29v.2a5.06,5.06,0,0,0-.79.45l-.16-.11a.28.28,0,0,0-.35,0l-.8.79a.28.28,0,0,0,0,.35l.11.16a5.07,5.07,0,0,0-.46.78h-.2a.28.28,0,0,0-.29.2l-.29,1.08a.28.28,0,0,0,.15.32l.18.09c0,.15,0,.31,0,.47s0,.29,0,.44l-.18.09a.28.28,0,0,0-.15.32l.29,1.08a.28.28,0,0,0,.29.21h.2l.14.27h-5.4l.13-.25.2,0a.28.28,0,0,0,.29-.2l.29-1.08a.28.28,0,0,0-.15-.32l-.18-.09c0-.15,0-.31,0-.47s0-.29,0-.44l.18-.09a.28.28,0,0,0,.15-.32l-.29-1.08a.28.28,0,0,0-.29-.21h-.2a5.06,5.06,0,0,0-.45-.79l.11-.16a.28.28,0,0,0,0-.35l-.79-.8a.28.28,0,0,0-.35,0l-.16.11a5.09,5.09,0,0,0-.78-.46v-.2a.28.28,0,0,0-.2-.29l-1.08-.29a.28.28,0,0,0-.32.15l-.09.18-.47,0-.44,0-.09-.18a.28.28,0,0,0-.32-.15l-1.08.29a.28.28,0,0,0-.21.29v.2a5.06,5.06,0,0,0-.79.45l-.16-.11a.28.28,0,0,0-.35,0l-.8.79a.28.28,0,0,0,0,.35l.11.16a5.07,5.07,0,0,0-.46.78h-.2a.28.28,0,0,0-.29.2l-.29,1.08a.28.28,0,0,0,.15.32l.18.09c0,.15,0,.31,0,.47s0,.29,0,.44l-.18.09a.28.28,0,0,0-.15.32l.29,1.08a.28.28,0,0,0,.29.21h.2l.14.27h-3.82l.17-.46H435a6.27,6.27,0,1,1,12.24-1.95H449A6.27,6.27,0,0,1,461.44,283l0-.08,1.34-2V268.33h-3.37L454.06,270l-.5-6.64h0v-1.11H436.81l.62,1.91h1.12l-.81,10.8-4.95,4.56h0l-3.14,6.42h-.76v.74h-.57l0-6.94-5.35,6.94h-2.17v-9.58H413v-10H396.75v9.7H389.8v4.65h-8.24v5.18h-3V221.77h-2.8V208.69H375v-5.21h-.57v5.21h-.83v-5.21H373v5.21h-.83v-5.21h-.57v5.21h-.83v-5.21h-.57v5.21h-.71v13.08H355.42V209h-.79v-5.21h-.57V209h-.83v-5.21h-.57V209h-.83v-5.21h-.57V209h-.83v-5.21h-.57V209h-.71v12.74h-2.67v64.88H335.87a3.65,3.65,0,1,0-5.87,0H308.63a3.65,3.65,0,1,0-5.7,0h-1.86a3.65,3.65,0,1,0-5.87,0H278.62v-1.58h1.46V283.7H260.22v1.38h1v1.58H238.86V273.8H227.6V252.75h0V206.67h67.49v22.46h-.06l.05.05-14.95,14.12h-3.61v9.8h39.12v-9.8h-4.28l-14.95-14.12.05-.05h-.05V206.67h12.38l-4.4-2.32H258.08l-1.85-1.26H252.5l-27.38-4.49v-1.5H223v-6.27h-1.65v6.27h-2.17v1.31c-3.17,1.56-6.35,3.15-8.46,4.24l-1.22-2h-6.15v2.45h-2v1.84h-1V204h-2.08v-3.9h0v-1.48h-1.79v-4.11h-5.79v-3.12h-28v3.12h-6.37v4.11h-2.76v1.48h-.07V204h-2.49v1h2.49v3.76h-2.49v1h2.49v3.76h-2.49v1h2.49v3.76h-2.49v1h2.49v3.76h-2.49v1h2.49V228h-2.49v1h2.49v3.76h-2.49v1h2.49v3.76h-2.49v1h2.49v3.76h-2.49v1h2.49v3.76h-2.49v1h2.49V252h-2.49v1h2.49v3.76h-2.49v1h2.49v3.76h-2.49v1h2.49v3.76h-2.49v1h2.49v3.76h-2.49v1h2.49v14.46H110l.5-.5a.24.24,0,0,0,0-.3l-.1-.14a4.31,4.31,0,0,0,.38-.67H111a.24.24,0,0,0,.24-.17l.24-.92a.24.24,0,0,0-.13-.27l-.15-.07c0-.12,0-.25,0-.37s0-.27,0-.4l.15-.07a.24.24,0,0,0,.12-.27l-.25-.92a.24.24,0,0,0-.25-.17h-.17a4.31,4.31,0,0,0-.39-.67l.09-.14a.24.24,0,0,0,0-.3l-.68-.67a.24.24,0,0,0-.3,0l-.14.1a4.3,4.3,0,0,0-.67-.38v-.17a.24.24,0,0,0-.17-.24l-.92-.24a.24.24,0,0,0-.27.13l-.07.15-.37,0-.4,0-.07-.15a.24.24,0,0,0-.27-.12l-.92.25a.24.24,0,0,0-.17.25v.17a4.3,4.3,0,0,0-.67.39l-.14-.09a.24.24,0,0,0-.3,0l-.67.68a.24.24,0,0,0,0,.3l.1.14a4.3,4.3,0,0,0-.38.67h-.17a.24.24,0,0,0-.24.17l-.24.92a.24.24,0,0,0,.13.27l.15.07c0,.12,0,.25,0,.37s0,.27,0,.4l-.15.07a.24.24,0,0,0-.12.27l.25.92a.24.24,0,0,0,.25.17H103a4.3,4.3,0,0,0,.39.67l-.09.14a.24.24,0,0,0,0,.3l.49.48H93.93l.75-.75a.27.27,0,0,0,0-.34l-.11-.16a5,5,0,0,0,.44-.77h.19a.27.27,0,0,0,.28-.2l.28-1.06a.27.27,0,0,0-.14-.31l-.18-.08c0-.14,0-.28,0-.43s0-.31,0-.46l.17-.09a.27.27,0,0,0,.14-.31l-.29-1.06a.27.27,0,0,0-.28-.2H95a4.94,4.94,0,0,0-.44-.76l.11-.16a.27.27,0,0,0,0-.34l-.78-.77a.27.27,0,0,0-.34,0l-.16.11a4.94,4.94,0,0,0-.77-.44v-.19a.27.27,0,0,0-.2-.28l-1.06-.28a.27.27,0,0,0-.31.14l-.08.18-.43,0-.46,0-.09-.17a.27.27,0,0,0-.31-.14l-1.06.29a.27.27,0,0,0-.2.28v.19a5,5,0,0,0-.76.44l-.16-.11a.27.27,0,0,0-.34,0l-.77.78a.27.27,0,0,0,0,.34l.11.16a5,5,0,0,0-.44.77h-.19a.27.27,0,0,0-.28.2l-.28,1.06a.27.27,0,0,0,.14.31l.18.08c0,.14,0,.28,0,.43s0,.31,0,.46l-.17.09a.27.27,0,0,0-.14.31l.29,1.06a.27.27,0,0,0,.28.2h.19a5,5,0,0,0,.44.76l-.11.16a.27.27,0,0,0,0,.34l.73.73H72.21v28.7h0v3.5H86.36v15.29h.3v24.28h73v-2.37a27,27,0,0,0,13.7,3.31,23.31,23.31,0,0,0,13.92-4.28,21.35,21.35,0,0,0,4.63-4.56c.28.33.57.66.86,1a25.89,25.89,0,0,0,9.63,6.52,31.11,31.11,0,0,0,11.32,2.07,28.76,28.76,0,0,0,10.12-1.75,26.39,26.39,0,0,0,5.39-2.78v2.87H288.9v-2.49a20.74,20.74,0,0,0,3.42,1.74,25.72,25.72,0,0,0,17.63.26,23.5,23.5,0,0,0,6.78-3.82c.19.2.38.42.58.61,3.24,3.08,7.89,4.64,13.83,4.64a25,25,0,0,0,7-.94h9.66a20,20,0,0,0,1.42,4.14,20.67,20.67,0,0,0,5.4,7,23.39,23.39,0,0,0,7.77,4.25,29.87,29.87,0,0,0,18.21,0,23.57,23.57,0,0,0,8-4.49,21.52,21.52,0,0,0,5.58-7.58,22.75,22.75,0,0,0,1.75-6.39,24.34,24.34,0,0,0,4.09,2.13,27.55,27.55,0,0,0,10.36,1.88,27.15,27.15,0,0,0,10.07-1.83,23.91,23.91,0,0,0,3.78-1.93v2.83H495l5.49-9.35,5.21,9.35H582V355.5a24.39,24.39,0,0,0,3.85,2,27.55,27.55,0,0,0,10.36,1.88,27.15,27.15,0,0,0,10.07-1.83,23.89,23.89,0,0,0,4-2.06v3H630a20.43,20.43,0,0,0,6.29.94,21.75,21.75,0,0,0,9.08-1.93A20.56,20.56,0,0,0,648,356v2.44h36.79v-2.33a27.06,27.06,0,0,0,13.63,3.27,23.31,23.31,0,0,0,13.92-4.28c4-2.86,7.07-8.93,8.35-12l1.28-3a18.45,18.45,0,0,0,1.43-5.94V291.23h0V228.05Zm-78.69,51.26H631.07l6.34-6Zm-5.16-12.75v3.82h-2.41v-3.82Zm-49,2.82a5.64,5.64,0,0,0,0-.65v-2.5l3.64,1.45Zm0-4.37v-2.26a4.17,4.17,0,0,0,0-.52l0-.05c0-.08,0-.15,0-.23l6.28-2.48-1.72,7.37Zm5.74,1.7,1.7-7.27,6.12,3.67Zm2.58-8.06,8.29-3.28L604,262.28Zm7.27,3.52,2.17-6.67,5.56,3.11Zm8.31-4.53-5.39-3,6.26-2.48Zm1.12.18.88-5.57,5.17,2.78Zm7-3.58-5.31-2.86,6.73-2.66Zm1.22-.21,1.31-5.11,4.31,2.52Zm6.29-3.51L624.88,248l5.07-2ZM635,244l1.34,3.14-4.55-1.87Zm.73,4.11-5.37,2.48.74-4.38ZM631,244.38l-41.4,16.39a9.45,9.45,0,0,0-2.25-5.31Zm-211.21-7.15h-8.82l4.41-4Zm40.5,32.67a.93.93,0,1,1-.93.93A.93.93,0,0,1,460.26,269.91ZM295.11,243.29H281.5l13.61-12.85Zm1.34-12.85L310,243.29h-13.6ZM87.65,286.66l.05,0,.06,0Zm2.89-2.37a1.73,1.73,0,1,1,1.73-1.73A1.73,1.73,0,0,1,90.54,284.29Zm2.78,2.37.08-.05.08.05Zm13.58-1.91a1.5,1.5,0,1,1,1.5-1.5A1.5,1.5,0,0,1,106.9,284.75Zm51.94-6.31h-4v-6.24h4Zm0-16.87h-4V257.8h4Zm0-4.8h-4V253h4Zm0-4.8h-4v-3.76h4Zm0-4.8h-4v-3.76h4Zm0-4.8h-4v-3.76h4Zm0-4.8h-4v-3.76h4Zm0-4.8h-4V229h4Zm0-4.8h-4v-3.76h4Zm0-4.8h-4v-3.76h4Zm0-4.8h-4v-3.76h4Zm0-4.8h-4v-3.76h4Zm0-4.8h-4V205h4Zm0-4.8h-4v-3.9h4Zm11.63,71.18h-3.21v-3h3.21Zm0-4h-3.21v-3.76h3.21Zm0-4.8h-3.21V262.6h3.21Zm0-4.8h-3.21V257.8h3.21Zm0-4.8h-3.21V253h3.21Zm0-4.8h-3.21v-3.76h3.21Zm0-4.8h-3.21v-3.76h3.21Zm0-4.8h-3.21v-3.76h3.21Zm0-4.8h-3.21v-3.76h3.21Zm0-4.8h-3.21V229h3.21Zm0-4.8h-3.21v-3.76h3.21Zm0-4.8h-3.21v-3.76h3.21Zm0-4.8h-3.21v-3.76h3.21Zm0-4.8h-3.21v-3.76h3.21Zm0-4.8h-3.21V205h3.21Zm0-4.8h-3.21v-3.9h3.21Zm6.31,71.18H171.9v-3h4.88Zm0-4H171.9v-3.76h4.88Zm0-4.8H171.9V262.6h4.88Zm0-4.8H171.9V257.8h4.88Zm0-4.8H171.9V253h4.88Zm0-4.8H171.9v-3.76h4.88Zm0-4.8H171.9v-3.76h4.88Zm0-4.8H171.9v-3.76h4.88Zm0-4.8H171.9v-3.76h4.88Zm0-4.8H171.9V229h4.88Zm0-4.8H171.9v-3.76h4.88Zm0-4.8H171.9v-3.76h4.88Zm0-4.8H171.9v-3.76h4.88Zm0-4.8H171.9v-3.76h4.88Zm0-4.8H171.9V205h4.88Zm0-4.8H171.9v-3.9h4.88Zm6.54,71.18h-5.1v-3h5.1Zm0-4h-5.1v-3.76h5.1Zm0-4.8h-5.1V262.6h5.1Zm0-4.8h-5.1V257.8h5.1Zm0-4.8h-5.1V253h5.1Zm0-4.8h-5.1v-3.76h5.1Zm0-4.8h-5.1v-3.76h5.1Zm0-4.8h-5.1v-3.76h5.1Zm0-4.8h-5.1v-3.76h5.1Zm0-4.8h-5.1V229h5.1Zm0-4.8h-5.1v-3.76h5.1Zm0-4.8h-5.1v-3.76h5.1Zm0-4.8h-5.1v-3.76h5.1Zm0-4.8h-5.1v-3.76h5.1Zm0-4.8h-5.1V205h5.1Zm0-4.8h-5.1v-3.9h5.1Zm13.51,76.8h-1.24v-8.61h1.24Zm0-9.64h-1.24v-3.76h1.24Zm0-4.8h-1.24V262.6h1.24Zm0-4.8h-1.24V257.8h1.24Zm0-4.8h-1.24V253h1.24Zm0-4.8h-1.24v-3.76h1.24Zm0-4.8h-1.24v-3.76h1.24Zm0-4.8h-1.24v-3.76h1.24Zm0-4.8h-1.24v-3.76h1.24Zm0-4.8h-1.24V229h1.24Zm0-4.8h-1.24v-3.76h1.24Zm0-4.8h-1.24v-3.76h1.24Zm0-4.8h-1.24v-3.76h1.24Zm0-4.8h-1.24v-3.76h1.24Zm0-4.8h-1.24V205h.81v1.65h.43Zm0-4.8h-1.24v-3.9h1.24Zm28.8,4.27L222.37,211,219,208.27Zm-6.22,60.08,3-2.48,3,2.48Zm6.21,1.13-3.27,2.75L219,269.48Zm-7-2v-4.68l2.82,2.31Zm3.7-9.55,3,2.48h-6Zm-3.7,1.64v-4.68l2.82,2.31Zm3.69-3.11L219,253.74h6.62Zm-3.68-3.79v-4.37l2.82,2.31L219,252.7Zm2.12,0,1.59-1.33L224,252.7Zm1.58-2.8L219,247.15h6.62ZM219.42,246l3-2.48,3,2.48Zm-.75-.84v-4.68l2.82,2.31Zm3.7-9.55,3,2.48h-6Zm-3.7,1.64v-4.68l2.82,2.31Zm3.69-3.11L219,231.42h6.62Zm-3.69-4.72v-4.68l2.82,2.31Zm.75.84,3-2.48,3,2.48Zm2.94-3.95-3-2.43h5.85Zm-3.69-4.4v-4.68l2.82,2.31Zm.75.84,3-2.48,3,2.48Zm2.94-3.95L219,216.08h6.62Zm-3.69-4.72v-4.68l2.82,2.31Zm.75.84,3-2.48,3,2.48Zm-2.68,37.75h0v21.1H206.51v12.85h-8.25V272.19h2.08v-1h-2.08v-3.76h2.08v-1h-2.08V262.6h2.08v-1h-2.08V257.8h2.08v-1h-2.08V253h2.08v-1h-2.08v-3.76h2.08v-1h-2.08v-3.76h2.08v-1h-2.08v-3.76h2.08v-1h-2.08v-3.76h2.08v-1h-2.08V229h2.08v-1h-2.08v-3.76h2.08v-1h-2.08v-3.76h2.08v-1h-2.08v-3.76h2.08v-1h-2.08v-3.76h2.08v-1h-2.08v-2.11h12.31v0h6.17Zm1.07-49.6h-5.47c1.94-1,4.47-2.25,6.83-3.41V201h-1.36Zm2.66,70.71h-1.82v-3.15l2.82,2.31Zm1.75,0,.13-.11.14.11Zm3.43,0h-1.39l-1-.85,2.42-2Zm0-6.69-2.42-2,2.42-2Zm0-5.5-3.31,2.78-3.45-2.83h6.77Zm0-2.41-2.42-2,2.42-2Zm0-6.59-2.42-2,2.42-2Zm0-7.83-2.42-2,2.42-2Zm0-5.5-3.31,2.78-3.45-2.83h6.77Zm0-2.41-2.42-2,2.42-2Zm0-7.83-2.42-2,2.42-2Zm0-7.51-2.42-2,2.42-2Zm0-7.83-2.42-2,2.42-2Zm-.56-12.7v-1.27l20.41,3.35h-19V201Zm52,85.63H262.69v-1.58H277.1Zm21-.51a1.65,1.65,0,1,1,1.65-1.65A1.65,1.65,0,0,1,298.13,286.14Zm7.65-.11a1.65,1.65,0,1,1,1.65-1.65A1.65,1.65,0,0,1,305.78,286Zm27.16.11h0a1.65,1.65,0,1,1,1.69-1.65A1.64,1.64,0,0,1,332.89,286.14Zm108-.11a1.77,1.77,0,1,1,1.77-1.77A1.77,1.77,0,0,1,440.95,286Zm14.35,0a1.77,1.77,0,1,1,1.77-1.77A1.77,1.77,0,0,1,455.29,286Zm21.07-13.44h-3.2V268.4h3.2Zm0-8.33h-3.2v-1.49h3.2Zm0-2.83h-3.2v-4.3h3.2Zm0-5.64h-3.2v-4.3h3.2Zm0-5.64h-3.2v-4.3h3.2Zm0-5.64h-3.2v-4.3h3.2Zm0-5.64h-3.2v-4.3h3.2Zm0-5.64h-3.2v-4.3h3.2Zm0-5.64h-3.2v-4.3h3.2Zm0-11.27h-3.2v-2.21h3.2ZM488.64,200l-2.26,1.85-2.2-1.85Zm-4.31,4.53,2-1.68,2,1.68Zm4.32.76-2.27,1.86-2.21-1.86Zm-4.51-1.6v-2.73l1.64,1.38Zm-.54-7.19H470.72l13.81-2.26v.86h-.92Zm.54,9.76,1.64,1.38L484.15,209Zm.19,3.56,2-1.68,2,1.68Zm4.55-.57-1.91-1.6,1.91-1.56Zm0-5.3-1.91-1.6,1.91-1.56Zm-.34-8.86v-.91c1.59.79,3.31,1.64,4.62,2.31h-3.7v-1.4Zm11.12,72h-3.21v-4.3h3.21Zm0-5.64h-3.21v-4.3h3.21Zm0-5.64h-3.21v-4.3h3.21Zm0-5.64h-3.21v-4.3h3.21Zm0-5.64h-3.21v-4.3h3.21Zm0-5.64h-3.21v-4.3h3.21Zm0-5.64h-3.21v-4.3h3.21Zm0-5.64h-3.21v-4.3h3.21Zm0-5.64h-3.21v-4.3h3.21Zm0-5.64h-3.21v-2.21h3.21Zm5.83,60.3h-3.21v-2.45h3.21Zm0-9.57h-3.21v-4.3h3.21Zm0-5.64h-3.21v-4.3h3.21Zm0-5.64h-3.21v-4.3h3.21Zm0-5.64h-3.21v-4.3h3.21Zm0-5.64h-3.21v-4.3h3.21Zm0-5.64h-3.21v-4.3h3.21Zm0-5.64h-3.21v-4.3h3.21Zm0-5.64h-3.21v-4.3h3.21Zm0-5.64h-3.21v-4.3h3.21Zm0-5.64h-3.21v-2.21h3.21Zm88.39,70H556.71a3.59,3.59,0,1,1,0-7.18h37.17a3.59,3.59,0,0,1,0,7.18Z" transform="translate(-72.21 -141.73)"/><path class="cls-2" d="M84.86,276.78l.52,2.5a6.11,6.11,0,0,1,11.17,2.16h5.28a5.39,5.39,0,0,1,8.28-2.53,6.45,6.45,0,0,1,2.22,2.89V286h4.33V281.8l-3.5-4.27,10.93-7.74,9.45.64.68,7.75c-1.58,1.45-5.65,2.07-5.65,2.07s3.86,2.93,5.34,3.71a1.89,1.89,0,0,0,2.44-.8l0-2.18,1.59-2.54c.65.13.46-.74.46-.74l-.78-.82,0-4.13h.19v-.3h.09V272h-.09v-1.66H138V270h-.09l0-1.85H138v-.41h-.09v-.07l.13-.07.19-.65c-2.11-2-3.21-1-3.21-1l-.09.31-4.16-.37v-.2l-.62,0v-.1l-.41,0v.1l-2.2-.18v-.07l-.41,0v.07l-1.89-.15v-.08l-.41,0v.08l-1.24-.1a.35.35,0,0,0-.31-.21c-.27,0-.44.09-.65.56s-5.13,4.16-5.13,4.16L110.25,274l-.15-.19-12.78-3.3L96.65,265H97.8v-1.64H95.23l-.34-1.81H92.77l-.34,1.81H84.73V265h1L84,276.78Zm30.34,7.07a.76.76,0,1,1-.76.76A.76.76,0,0,1,115.2,283.86Zm21.67-14.79a1.76,1.76,0,0,1,.44-1h0l0,1.85h-.09v.41h.09V272h-.09v.41h.09v.3h.18l0,3.94L136,275.15C136.35,272.64,136.79,269.66,136.87,269.07Zm-1.12,7.53L137,278l-1,1.5-.64-.64ZM124.8,265.78v.1l.41,0v-.1l1.89.15v.11l.41,0V266l2.2.18v.08l.41,0v-.08l.62,0v-.17l4.12.37-.32,1.11-.56.54-1.16.29L125,266.24l-.46-.08a2.08,2.08,0,0,1-.7-.45Z" transform="translate(-72.21 -141.73)"/><circle class="cls-2" cx="521.39" cy="141.01" r="2.89"/><circle class="cls-2" cx="515.33" cy="141.01" r="2.89"/><circle class="cls-2" cx="509.27" cy="141.01" r="2.89"/><circle class="cls-2" cx="503.21" cy="141.01" r="2.89"/><circle class="cls-2" cx="497.15" cy="141.01" r="2.89"/><circle class="cls-2" cx="491.09" cy="141.01" r="2.89"/><circle class="cls-2" cx="485.03" cy="141.01" r="2.89"/><path class="cls-3" d="M93.69,351.41V311.84H79.24v-8.38h39v8.38H103.72v39.57Z" transform="translate(-72.21 -141.73)"/><path class="cls-3" d="M143.22,351.41v-22q0-4-1.41-5.52t-4.66-1.48a6.84,6.84,0,0,0-3.1.69,6.75,6.75,0,0,0-2.31,1.88,8.23,8.23,0,0,0-1.41,2.74,11.55,11.55,0,0,0-.47,3.36v20.36h-9.39V302.89h9.39v17.62a7.23,7.23,0,0,1,1.55-2.2,9.94,9.94,0,0,1,2.42-1.77,14.22,14.22,0,0,1,3-1.15,13.67,13.67,0,0,1,3.47-.43,13.07,13.07,0,0,1,8.92,3,10.5,10.5,0,0,1,3.43,8.34v25.13Z" transform="translate(-72.21 -141.73)"/><path class="cls-3" d="M165,336.1a10.13,10.13,0,0,0,2.35,6.43,7.15,7.15,0,0,0,5.6,2.38,7.85,7.85,0,0,0,4.08-1,4.74,4.74,0,0,0,2.28-2.92H189a15.58,15.58,0,0,1-5.78,8.45,16.37,16.37,0,0,1-9.82,3q-17.76,0-17.76-19.35a22.53,22.53,0,0,1,1.16-7.44,16,16,0,0,1,3.36-5.7,14.5,14.5,0,0,1,5.38-3.65,19.63,19.63,0,0,1,7.29-1.26q8.23,0,12.46,5.27t4.22,15.89Zm14.8-5.92a9.91,9.91,0,0,0-.69-3.43,7.2,7.2,0,0,0-1.62-2.46,6.48,6.48,0,0,0-2.31-1.44,7.8,7.8,0,0,0-2.67-.47,6.66,6.66,0,0,0-4.87,2.06,8.78,8.78,0,0,0-2.35,5.74Z" transform="translate(-72.21 -141.73)"/><path class="cls-3" d="M234.43,334.95a27.1,27.1,0,0,1-2.53,7.44,20.25,20.25,0,0,1-4.37,5.71,18.91,18.91,0,0,1-6.1,3.68,21.67,21.67,0,0,1-7.66,1.3,24,24,0,0,1-8.77-1.59,18.83,18.83,0,0,1-7-4.77,22.73,22.73,0,0,1-4.66-7.84,31.68,31.68,0,0,1-1.7-10.87,36,36,0,0,1,1.55-10.94,23.28,23.28,0,0,1,4.44-8.23,19.32,19.32,0,0,1,7-5.16,23,23,0,0,1,9.28-1.81,23.48,23.48,0,0,1,8.12,1.34,19.36,19.36,0,0,1,6.28,3.68,17.82,17.82,0,0,1,4.19,5.52,19.87,19.87,0,0,1,1.91,6.79h-10a11.25,11.25,0,0,0-3.9-6.39,10.24,10.24,0,0,0-6.5-2.27q-6.28,0-9.24,4.51t-3,12.38q0,8,2.92,12.46a9.8,9.8,0,0,0,8.77,4.44,10.38,10.38,0,0,0,7.18-2.42,12.73,12.73,0,0,0,3.72-7Z" transform="translate(-72.21 -141.73)"/><path class="cls-3" d="M259.06,351.41v-22q0-4-1.41-5.52T253,322.38a6.84,6.84,0,0,0-3.1.69,6.75,6.75,0,0,0-2.31,1.88,8.23,8.23,0,0,0-1.41,2.74,11.55,11.55,0,0,0-.47,3.36v20.36h-9.39V302.89h9.39v17.62a7.23,7.23,0,0,1,1.55-2.2,9.94,9.94,0,0,1,2.42-1.77,14.22,14.22,0,0,1,3-1.15,13.67,13.67,0,0,1,3.47-.43,13.07,13.07,0,0,1,8.92,3,10.5,10.5,0,0,1,3.43,8.34v25.13Z" transform="translate(-72.21 -141.73)"/><path class="cls-3" d="M272.49,311.62v-8.74h9.39v8.74Zm0,39.79V315.88h9.39v35.53Z" transform="translate(-72.21 -141.73)"/><path class="cls-3" d="M317.84,338.56a15,15,0,0,1-1.77,5.63,15.22,15.22,0,0,1-3.57,4.33,16.4,16.4,0,0,1-4.95,2.82,17.52,17.52,0,0,1-6,1,17.73,17.73,0,0,1-6.61-1.19,13.58,13.58,0,0,1-5.16-3.61,16.84,16.84,0,0,1-3.36-6,26.4,26.4,0,0,1-1.19-8.34,25.39,25.39,0,0,1,1.19-8.23,14.8,14.8,0,0,1,3.36-5.67A13.56,13.56,0,0,1,295,316a20.4,20.4,0,0,1,6.82-1.08,20.16,20.16,0,0,1,6.32.94,14.76,14.76,0,0,1,5,2.74,13.19,13.19,0,0,1,3.36,4.33,15.2,15.2,0,0,1,1.44,5.63h-9.46a6.5,6.5,0,0,0-2.2-4.3,6.77,6.77,0,0,0-4.51-1.55,7.72,7.72,0,0,0-2.82.51,5.51,5.51,0,0,0-2.28,1.7,8.9,8.9,0,0,0-1.55,3.18,17.65,17.65,0,0,0-.58,4.87q0,5.85,2.09,8.67a6,6,0,0,0,4.84,2.82,7.42,7.42,0,0,0,4.69-1.52,6.06,6.06,0,0,0,2.24-4.41Z" transform="translate(-72.21 -141.73)"/><path class="cls-3" d="M342.46,351.41a14.38,14.38,0,0,1-.58-3.18,11.61,11.61,0,0,1-4.4,3,16.76,16.76,0,0,1-6.35,1.12q-6.14,0-9-2.71a9.27,9.27,0,0,1-2.85-7,12.87,12.87,0,0,1,1.23-6.1,9.14,9.14,0,0,1,3.39-3.57,16.34,16.34,0,0,1,5.16-1.91q3-.61,6.54-1.12a12.57,12.57,0,0,0,4.77-1.34,3.3,3.3,0,0,0-.4-5.42,8.46,8.46,0,0,0-4.37-1q-3.25,0-4.66,1.44a6.77,6.77,0,0,0-1.77,3.83h-8.74a16.07,16.07,0,0,1,.9-5.06,9.68,9.68,0,0,1,2.67-4,12.5,12.5,0,0,1,4.8-2.56,25,25,0,0,1,7.22-.9,23.52,23.52,0,0,1,7.11.94,11.46,11.46,0,0,1,4.69,2.71,10.32,10.32,0,0,1,2.56,4.4,20.63,20.63,0,0,1,.79,6v22.46Zm-.65-17.4a5.09,5.09,0,0,1-2.1,1.15,38.34,38.34,0,0,1-4,.94q-4,.79-5.56,2a4.29,4.29,0,0,0-1.52,3.54q0,4,4.55,4a9,9,0,0,0,3.36-.61,8.19,8.19,0,0,0,4.48-4.12,6.75,6.75,0,0,0,.69-3Z" transform="translate(-72.21 -141.73)"/><path class="cls-3" d="M379.73,346.65a7.4,7.4,0,0,1-3.65,3.72,13.31,13.31,0,0,1-6.1,1.34,16,16,0,0,1-7.4-1.55,13.62,13.62,0,0,1-4.84-4.08,16.67,16.67,0,0,1-2.67-5.85,27.84,27.84,0,0,1-.83-6.79,22.25,22.25,0,0,1,1.23-7.55,18.18,18.18,0,0,1,3.32-5.85,14.88,14.88,0,0,1,4.91-3.76,14,14,0,0,1,6.07-1.34,11,11,0,0,1,10,5.34v-4.4h9.39v35.89a17.28,17.28,0,0,1-1.37,7.11A14.48,14.48,0,0,1,384,364a16.51,16.51,0,0,1-5.63,3.14,22.86,22.86,0,0,1-13.79,0,16.32,16.32,0,0,1-5.45-3,13.63,13.63,0,0,1-3.57-4.66,14.33,14.33,0,0,1-1.3-6.21H363a6.16,6.16,0,0,0,2.13,5,8.59,8.59,0,0,0,5.67,1.77,9.92,9.92,0,0,0,6.35-2.06,6.76,6.76,0,0,0,2.6-5.6ZM372,344.34a7.26,7.26,0,0,0,5.74-2.64,10.63,10.63,0,0,0,2.28-7.19q0-11.41-8-11.41t-8,10.83a11.72,11.72,0,0,0,2.27,7.58A7.08,7.08,0,0,0,372,344.34Z" transform="translate(-72.21 -141.73)"/><path class="cls-3" d="M410.34,352.35a20.49,20.49,0,0,1-7.73-1.37,15.84,15.84,0,0,1-9.32-9.75,22.55,22.55,0,0,1-1.23-7.58,22.21,22.21,0,0,1,1.26-7.65,16.48,16.48,0,0,1,3.65-5.92,16.29,16.29,0,0,1,5.74-3.79,20.47,20.47,0,0,1,7.62-1.34,20,20,0,0,1,7.51,1.34,16.23,16.23,0,0,1,5.67,3.76,16.42,16.42,0,0,1,3.61,5.89,22.45,22.45,0,0,1,1.26,7.73,22.14,22.14,0,0,1-1.26,7.69,16.82,16.82,0,0,1-3.61,5.89,15.88,15.88,0,0,1-5.7,3.79A20.07,20.07,0,0,1,410.34,352.35Zm0-7.87q8.59,0,8.59-10.83t-8.59-10.76q-8.59,0-8.59,10.76T410.34,344.48Z" transform="translate(-72.21 -141.73)"/><path class="cls-3" d="M441.25,331.19v20.22h-10v-48h34.16v8.38H441.25v10.9h21.09v8.45Z" transform="translate(-72.21 -141.73)"/><path class="cls-3" d="M467.32,351.41v-48h10v48Z" transform="translate(-72.21 -141.73)"/><path class="cls-3" d="M509.79,351.41l-9.17-16.47-9.68,16.47h-11.7l15.53-24.48L480.1,303.46h11.84L500.61,319l8.74-15.53H521l-14.59,23L522,351.41Z" transform="translate(-72.21 -141.73)"/><path class="cls-3" d="M565.82,351.41V329.89a8.56,8.56,0,0,0-1.52-5.27,4.8,4.8,0,0,0-4-2,5.24,5.24,0,0,0-4.3,2.17,8.52,8.52,0,0,0-1.7,5.42v21.23h-9.39V330a17.76,17.76,0,0,0-.29-3.54,4.78,4.78,0,0,0-1-2.17,3.68,3.68,0,0,0-1.77-1.12,9.12,9.12,0,0,0-2.6-.33q-5.71,0-5.7,6.93v21.59h-9.39V315.88H533v5.2a10.55,10.55,0,0,1,4.33-4.84,13.13,13.13,0,0,1,6.07-1.3,16.13,16.13,0,0,1,3.21.29,7.8,7.8,0,0,1,2.53,1,10.32,10.32,0,0,1,2.13,1.77,20.45,20.45,0,0,1,2,2.6,9.5,9.5,0,0,1,3.83-4.3,11.65,11.65,0,0,1,5.78-1.34,13,13,0,0,1,4.91.9,11.1,11.1,0,0,1,3.83,2.53,12,12,0,0,1,3.39,8.41v24.63Z" transform="translate(-72.21 -141.73)"/><path class="cls-3" d="M596.23,352.35A20.49,20.49,0,0,1,588.5,351a15.84,15.84,0,0,1-9.32-9.75,22.55,22.55,0,0,1-1.23-7.58,22.21,22.21,0,0,1,1.26-7.65,16.48,16.48,0,0,1,3.65-5.92,16.29,16.29,0,0,1,5.74-3.79,20.47,20.47,0,0,1,7.62-1.34,20,20,0,0,1,7.51,1.34A16.23,16.23,0,0,1,609.4,320a16.42,16.42,0,0,1,3.61,5.89,22.45,22.45,0,0,1,1.26,7.73,22.14,22.14,0,0,1-1.26,7.69,16.82,16.82,0,0,1-3.61,5.89,15.88,15.88,0,0,1-5.7,3.79A20.07,20.07,0,0,1,596.23,352.35Zm0-7.87q8.59,0,8.59-10.83t-8.59-10.76q-8.59,0-8.59,10.76T596.23,344.48Z" transform="translate(-72.21 -141.73)"/><path class="cls-3" d="M617.31,351.41V302.89h9.24v17.62a12.35,12.35,0,0,1,10.54-5.56,13.78,13.78,0,0,1,6.17,1.34,12.92,12.92,0,0,1,4.59,3.79,17.51,17.51,0,0,1,2.85,5.81,26.47,26.47,0,0,1,1,7.4,25.81,25.81,0,0,1-1.15,8,18.24,18.24,0,0,1-3.18,6,13.49,13.49,0,0,1-4.87,3.75,14.71,14.71,0,0,1-6.17,1.3q-6.64,0-9.89-5.27l-.07,4.33Zm16.83-6.72a6.91,6.91,0,0,0,5.78-3,12.64,12.64,0,0,0,2.24-7.76q0-11-8.09-11-7.87,0-7.87,11.55a11.36,11.36,0,0,0,2.28,7.37A7,7,0,0,0,634.14,344.7Z" transform="translate(-72.21 -141.73)"/><path class="cls-3" d="M655,311.62v-8.74h9.39v8.74Zm0,39.79V315.88h9.39v35.53Z" transform="translate(-72.21 -141.73)"/><path class="cls-3" d="M668.37,351.41V302.89h9.39v48.53Z" transform="translate(-72.21 -141.73)"/><path class="cls-3" d="M690,336.1a10.13,10.13,0,0,0,2.35,6.43,7.15,7.15,0,0,0,5.6,2.38,7.85,7.85,0,0,0,4.08-1,4.74,4.74,0,0,0,2.28-2.92H714a15.58,15.58,0,0,1-5.78,8.45,16.37,16.37,0,0,1-9.82,3q-17.76,0-17.76-19.35a22.53,22.53,0,0,1,1.16-7.44,16,16,0,0,1,3.36-5.7,14.5,14.5,0,0,1,5.38-3.65,19.63,19.63,0,0,1,7.29-1.26q8.23,0,12.46,5.27t4.22,15.89Zm14.8-5.92a9.91,9.91,0,0,0-.69-3.43,7.2,7.2,0,0,0-1.62-2.46,6.48,6.48,0,0,0-2.31-1.44,7.8,7.8,0,0,0-2.67-.47,6.66,6.66,0,0,0-4.87,2.06,8.78,8.78,0,0,0-2.35,5.74Z" transform="translate(-72.21 -141.73)"/></g></svg>